<?xml version="1.0" standalone="no"?>
<!DOCTYPE svg PUBLIC "-//W3C//DTD SVG 20010904//EN"
 "http://www.w3.org/TR/2001/REC-SVG-20010904/DTD/svg10.dtd">
<svg version="1.0" xmlns="http://www.w3.org/2000/svg"
width="2500" height="2500" viewBox="0 0 594.000000 420.000000"
 preserveAspectRatio="xMidYMid meet">

<g transform="translate(0.000000,420.000000) scale(0.100000,-0.100000)"
fill="#000000" stroke="none">
<path d="M1830 2810 l0 -440 850 0 850 0 0 440 0 440 -850 0 -850 0 0 -440z
m864 344 c9 -8 16 -24 16 -33 0 -14 11 -20 49 -25 27 -3 76 -20 110 -37 93
-47 116 -96 59 -128 -25 -15 -29 -14 -55 7 -42 33 -77 50 -122 61 l-41 9 0
-84 0 -84 33 0 c56 0 137 -30 174 -63 63 -58 57 -155 -13 -217 -35 -30 -117
-60 -166 -60 -23 0 -28 -4 -28 -23 0 -29 -18 -47 -45 -47 -27 0 -45 18 -45 46
0 18 -7 22 -46 28 -92 12 -194 76 -194 122 0 47 72 59 110 19 18 -19 101 -55
127 -55 2 0 3 37 1 82 l-3 81 -55 12 c-74 15 -137 49 -161 88 -26 42 -21 112
11 157 26 36 104 76 167 86 37 5 43 10 43 30 0 39 46 56 74 28z"/>
<path d="M2566 2995 c-55 -14 -76 -35 -76 -77 0 -34 28 -54 88 -64 l42 -7 0
82 c0 44 -1 81 -2 80 -2 0 -25 -6 -52 -14z"/>
<path d="M2710 2671 c0 -89 1 -90 61 -70 110 37 98 126 -18 144 l-43 7 0 -81z"/>
<path d="M1740 2715 l0 -455 865 0 865 0 0 40 0 40 -835 0 -835 0 0 415 0 415
-30 0 -30 0 0 -455z"/>
<path d="M1247 2278 c-28 -67 -38 -108 -30 -121 4 -8 46 -59 93 -113 92 -107
103 -118 481 -463 l257 -234 228 -135 229 -136 145 -16 145 -17 223 28 c194
25 241 34 363 74 l139 46 128 -20 c157 -25 266 -40 270 -36 2 2 12 121 22 266
10 145 22 288 25 317 l5 53 -110 -7 -110 -7 -173 115 -172 115 -155 5 c-161 6
-148 8 -482 -51 -100 -18 -158 -21 -415 -21 l-299 0 -28 -32 c-25 -29 -27 -36
-19 -76 l8 -45 85 -29 c47 -16 156 -47 242 -69 l158 -41 267 10 267 10 55 -31
55 -31 -30 -9 c-16 -5 -164 -13 -329 -19 l-300 -10 -145 36 c-115 29 -373 110
-388 122 -2 1 -10 43 -18 94 -15 91 -15 93 6 115 l21 22 -33 14 c-18 7 -143
83 -278 168 -200 125 -258 157 -315 172 -38 10 -71 19 -72 19 -2 0 -9 -15 -16
-32z"/>
<path d="M4284 1823 l-241 -3 -6 -68 c-19 -212 -50 -653 -46 -656 2 -3 121
-14 264 -25 143 -12 300 -26 348 -32 49 -6 90 -9 92 -7 2 1 7 182 11 401 l7
397 -94 -2 c-52 -2 -202 -4 -335 -5z m-63 -512 c44 -45 33 -108 -23 -132 -77
-32 -143 79 -80 134 40 34 67 34 103 -2z"/>
</g>
</svg>
